<svg width="408" height="364" viewBox="0 0 408 364" fill="none" xmlns="http://www.w3.org/2000/svg">
<g filter="url(#filter0_d_356_14)">
<path d="M335.291 108.626C337.059 113.167 336.704 118.662 333.892 125.034C331.072 131.427 325.891 138.409 318.558 145.526C303.903 159.747 281.237 173.942 254.001 184.545C226.766 195.148 200.468 200.016 180.056 199.446C169.84 199.161 161.302 197.52 154.902 194.717C148.522 191.923 144.545 188.114 142.777 183.573C141.009 179.033 141.364 173.537 144.176 167.165C146.996 160.773 152.177 153.79 159.511 146.673C174.165 132.452 196.831 118.257 224.067 107.654C251.303 97.0508 277.6 92.1833 298.013 92.7529C308.228 93.038 316.766 94.6791 323.166 97.4818C329.546 100.276 333.523 104.085 335.291 108.626Z" stroke="white" stroke-width="8"/>
<path fill-rule="evenodd" clip-rule="evenodd" d="M270.614 135.398C327.27 113.342 380.74 114.833 390.042 138.728C399.344 162.623 360.956 199.874 304.3 221.93C279.249 231.681 254.83 236.822 234.568 237.466V250.852C205.24 387.65 18.4882 342.051 16.0002 274.895C16.0002 215.907 142.175 103.837 217.193 164.323C231.593 153.579 249.877 143.47 270.614 135.398ZM111 259C120.941 259 129 250.941 129 241C129 231.059 120.941 223 111 223C101.059 223 93 231.059 93 241C93 250.941 101.059 259 111 259Z" fill="white"/>
<path fill-rule="evenodd" clip-rule="evenodd" d="M86.709 11.1481C84.0829 5.88449 76.104 8.68846 77.348 14.4377L82.0119 35.9917L82 36.0002L84 45.5002L84.0599 45.4568L92.3994 83.9974L93.4999 89.5001L93.5758 89.4343L100.603 121.91L100.5 122L103.054 133.238L108.892 160.219C109.529 163.16 112.599 164.876 115.437 163.879L150.481 151.564C153.32 150.566 154.641 147.306 153.298 144.614L137.61 113.17L129.5 96.5001L129.356 96.6268L113.865 65.5771L109 55.5002L108.886 55.5989L86.709 11.1481ZM108.886 55.5989L113.865 65.5771L116 70.0001L93.5758 89.4343L92.3994 83.9974L90 72.0003L108.886 55.5989ZM129.356 96.6268L100.603 121.91L103.054 133.238L105.5 144L138.5 115L137.61 113.17L129.356 96.6268ZM84.0599 45.4568L98.4999 35.0002L94.4999 27.0002L82.0119 35.9917L84.0599 45.4568Z" fill="white"/>
</g>
<defs>
<filter id="filter0_d_356_14" x="0.000244141" y="0.359375" width="407.431" height="363.208" filterUnits="userSpaceOnUse" color-interpolation-filters="sRGB">
<feFlood flood-opacity="0" result="BackgroundImageFix"/>
<feColorMatrix in="SourceAlpha" type="matrix" values="0 0 0 0 0 0 0 0 0 0 0 0 0 0 0 0 0 0 127 0" result="hardAlpha"/>
<feOffset dy="8"/>
<feGaussianBlur stdDeviation="8"/>
<feComposite in2="hardAlpha" operator="out"/>
<feColorMatrix type="matrix" values="0 0 0 0 0 0 0 0 0 0 0 0 0 0 0 0 0 0 0.25 0"/>
<feBlend mode="normal" in2="BackgroundImageFix" result="effect1_dropShadow_356_14"/>
<feBlend mode="normal" in="SourceGraphic" in2="effect1_dropShadow_356_14" result="shape"/>
</filter>
</defs>
</svg>
