<svg width="320" height="320" viewBox="0 0 320 320" fill="none" xmlns="http://www.w3.org/2000/svg">
<g clip-path="url(#clip0_40_102)">
<path fill-rule="evenodd" clip-rule="evenodd" d="M162.161 -0.00104515C251.721 -0.00104515 324.323 71.484 324.323 159.665C324.323 247.847 251.721 319.332 162.161 319.332C72.6015 319.332 -0.000976563 247.847 -0.000976563 159.665C-0.000976563 71.484 72.6015 -0.00104515 162.161 -0.00104515ZM160.534 102.187C193.074 102.187 219.453 128.16 219.453 160.2C219.453 192.239 193.074 218.212 160.534 218.212C127.994 218.212 101.616 192.239 101.616 160.2C101.616 128.16 127.994 102.187 160.534 102.187Z" fill="url(#paint0_angular_40_102)"/>
</g>
<g clip-path="url(#clip1_40_102)">
<path fill-rule="evenodd" clip-rule="evenodd" d="M160 319.332C71.6344 319.332 0 247.847 0 159.665C0 71.484 71.6344 -0.00109863 160 -0.00109863C248.366 -0.00109863 320 71.484 320 159.665C320 247.847 248.366 319.332 160 319.332ZM160.531 102.187C192.638 102.187 218.665 128.16 218.665 160.199C218.665 192.239 192.638 218.212 160.531 218.212C128.425 218.212 102.398 192.239 102.398 160.199C102.398 128.16 128.425 102.187 160.531 102.187Z" fill="url(#paint1_angular_40_102)"/>
</g>
<ellipse cx="158.383" cy="50.8925" rx="51" ry="50.8936" fill="url(#paint2_linear_40_102)"/>
<ellipse cx="159.458" cy="269.105" rx="51" ry="50.8936" fill="url(#paint3_linear_40_102)"/>
<g style="mix-blend-mode:soft-light">
<mask id="path-5-inside-1_40_102" fill="white">
<path fill-rule="evenodd" clip-rule="evenodd" d="M158.924 53.22C218.23 53.22 266.307 100.877 266.307 159.664C266.307 218.452 218.23 266.108 158.924 266.108C99.6173 266.108 51.54 218.452 51.54 159.664C51.54 100.877 99.6173 53.22 158.924 53.22ZM159.459 102.187C191.781 102.187 217.983 128.16 217.983 160.2C217.983 192.239 191.781 218.212 159.459 218.212C127.137 218.212 100.935 192.239 100.935 160.2C100.935 128.16 127.137 102.187 159.459 102.187Z"/>
</mask>
<path fill-rule="evenodd" clip-rule="evenodd" d="M158.924 53.22C218.23 53.22 266.307 100.877 266.307 159.664C266.307 218.452 218.23 266.108 158.924 266.108C99.6173 266.108 51.54 218.452 51.54 159.664C51.54 100.877 99.6173 53.22 158.924 53.22ZM159.459 102.187C191.781 102.187 217.983 128.16 217.983 160.2C217.983 192.239 191.781 218.212 159.459 218.212C127.137 218.212 100.935 192.239 100.935 160.2C100.935 128.16 127.137 102.187 159.459 102.187Z" fill="white"/>
<path d="M312.307 159.664C312.307 75.0914 243.253 7.21997 158.924 7.21997V99.22C193.207 99.22 220.307 126.662 220.307 159.664H312.307ZM158.924 312.108C243.253 312.108 312.307 244.237 312.307 159.664H220.307C220.307 192.666 193.207 220.108 158.924 220.108V312.108ZM5.54003 159.664C5.54003 244.237 74.5941 312.108 158.924 312.108V220.108C124.641 220.108 97.54 192.666 97.54 159.664H5.54003ZM158.924 7.21997C74.5941 7.21997 5.54003 75.0914 5.54003 159.664H97.54C97.54 126.662 124.641 99.22 158.924 99.22V7.21997ZM263.983 160.2C263.983 102.375 216.804 56.1874 159.459 56.1874V148.187C166.757 148.187 171.983 153.946 171.983 160.2H263.983ZM159.459 264.212C216.804 264.212 263.983 218.024 263.983 160.2H171.983C171.983 166.453 166.757 172.212 159.459 172.212V264.212ZM54.9346 160.2C54.9346 218.024 102.113 264.212 159.459 264.212V172.212C152.16 172.212 146.935 166.453 146.935 160.2H54.9346ZM159.459 56.1874C102.113 56.1874 54.9346 102.375 54.9346 160.2H146.935C146.935 153.946 152.16 148.187 159.459 148.187V56.1874Z" fill="white" fill-opacity="0.24" mask="url(#path-5-inside-1_40_102)"/>
</g>
<defs>
<radialGradient id="paint0_angular_40_102" cx="0" cy="0" r="1" gradientUnits="userSpaceOnUse" gradientTransform="translate(162.161 159.665) rotate(-90) scale(159.666 162.162)">
<stop stop-color="#02E7CC"/>
<stop offset="0.494792" stop-color="#015EFC"/>
</radialGradient>
<radialGradient id="paint1_angular_40_102" cx="0" cy="0" r="1" gradientUnits="userSpaceOnUse" gradientTransform="translate(160 159.665) rotate(90) scale(159.666 160)">
<stop stop-color="#FF8340"/>
<stop offset="0.230131" stop-color="#6C2270"/>
<stop offset="0.484375" stop-color="#0D0046"/>
</radialGradient>
<linearGradient id="paint2_linear_40_102" x1="158.383" y1="-0.00109863" x2="107.383" y2="-0.00109863" gradientUnits="userSpaceOnUse">
<stop stop-color="#02E7CC"/>
<stop offset="1" stop-color="#02E7CC" stop-opacity="0"/>
</linearGradient>
<linearGradient id="paint3_linear_40_102" x1="159.458" y1="218.212" x2="210.458" y2="218.212" gradientUnits="userSpaceOnUse">
<stop stop-color="#F77D43"/>
<stop offset="1" stop-color="#EB7646" stop-opacity="0"/>
</linearGradient>
<clipPath id="clip0_40_102">
<rect width="160" height="319.333" fill="white" transform="matrix(1 0 0 -1 -0.000976562 319.332)"/>
</clipPath>
<clipPath id="clip1_40_102">
<rect width="160" height="319.333" fill="white" transform="translate(160 -0.00109863)"/>
</clipPath>
</defs>
</svg>
